<svg class="typst-doc" viewBox="0 0 216 216" width="216pt" height="216pt" xmlns="http://www.w3.org/2000/svg" xmlns:xlink="http://www.w3.org/1999/xlink" xmlns:h5="http://www.w3.org/1999/xhtml">
    <g>
        <g class="typst-group" transform="matrix(1 0 0 1 8.600000000000005 8.600000000000005)">
            <g>
                <path class="typst-shape" fill="#0b1b29" fill-rule="nonzero" d="M 0 0m 99.4 0 c -54.847332 0 -99.4 44.55267 -99.4 99.4 c 0 54.84733 44.55267 99.4 99.4 99.4 c 54.84733 0 99.4 -44.552673 99.4 -99.4 c 0 -54.847332 -44.552673 -99.4 -99.4 -99.4 Z "/>
                <path class="typst-shape" fill="#f05a4a" fill-rule="nonzero" transform="matrix(1 0 0 1 18.206956600990626 62.793246145561234)" d="M 0 0m 72.70533 117.36193 l -3.163887 -0.39548492 l -3.1459274 -0.5193939 l -3.123104 -0.64250183 l -3.0954742 -0.7646179 l -3.0630684 -0.8855591 l -3.0259438 -1.005127 l -2.984146 -1.1231537 l -2.9377518 -1.2394485 l -2.8868256 -1.3538208 l -2.8314476 -1.4661179 l -2.7717094 -1.576149 l -2.7076912 -1.683754 l -2.6394997 -1.7887573 l -2.5672379 -1.8909988 l -2.4910202 -1.9903336 l -2.4109573 -2.0866013 l -2.3271809 -2.1796417 l -2.2398129 -2.2693253 l -2.1489925 -2.355507 l -2.054861 -2.4380646 l -1.9575577 -2.516861 l -1.8572359 -2.591774 l -1.7540531 -2.6626892 l -1.6481638 -2.7294922 l -1.5397329 -2.7921066 l -1.4289293 -2.8503952 l -1.3159208 -2.9042969 l -1.2008843 -2.9537277 l -1.0839963 -2.9985924 l -0.96543574 -3.0388374 l -0.84538746 -3.074398 l -0.72403526 -3.1052208 l -0.6015668 -3.1312485 l -0.47817075 -3.1524506 l -0.35403737 -3.1687965 l -0.2293581 -3.180252 l -0.104325175 -3.1868057 l 0.02086861 -3.1884422 l 0.14603022 -3.1851654 l 0.27096665 -3.1769772 l 0.39548528 -3.1638908 l 0.51939416 -3.1459236 l 0.64250207 -3.123106 l 0.76461923 -3.0954752 l 0.88555765 -3.0630693 l 1.0051303 -3.0259418 l 1.1231537 -2.9841466 l 1.2394443 -2.9377515 l 0.8786316 -1.354867 l 1.0924435 -1.0354074 l 1.3062563 -0.7159477 l 1.5200672 -0.39648798 l 1.7338791 -0.077028304 l 1.9476919 0.24243139 l 2.1615038 0.5618911 l 2.3753147 0.88135076 l 2.5891285 1.2008104 l 2.8029385 1.5202703 l 2.7417336 1.6403933 l 2.40551 1.5611801 l 2.0692883 1.4819665 l 1.7330627 1.4027538 l 1.3968353 1.3235397 l 1.0606155 1.2443275 l 0.72439194 1.1651134 l 0.38816833 1.0859003 l 0.051944733 1.0066862 l -0.28427887 0.927475 l -0.7265701 1.7221298 l -0.6584015 1.7493267 l -0.5892143 1.7738285 l -0.51911926 1.7955933 l -0.4482231 1.8145885 l -0.37664032 1.8307858 l -0.30447388 1.844162 l -0.23183441 1.8546944 l -0.158844 1.8623657 l -0.08560181 1.8671646 l -0.012233734 1.869091 l 0.061157227 1.8681259 l 0.134449 1.8642845 l 0.2075386 1.8575706 l 0.28030777 1.8479881 l 0.35264206 1.8355598 l 0.42443466 1.820301 l 0.49557114 1.8022346 l 0.5659447 1.7813873 l 0.63544846 1.7577972 l 0.70396423 1.7314911 l 0.77140427 1.7025223 l 0.8376465 1.6709213 l 0.90260315 1.6367493 l 0.96616364 1.6000519 l 1.0282402 1.5608864 l 1.088726 1.5193138 l 1.1475334 1.4753952 l 1.2045708 1.4292145 l 1.2597542 1.3808136 l 1.3129959 1.3302994 l 1.3642082 1.2777176 l 1.4133224 1.2231827 l 1.4602509 1.166748 l 1.5049324 1.1085129 l 1.5472946 1.048584 l 1.587265 0.9870224 l 1.624794 0.9239502 l 1.6598167 0.8594513 l 1.692276 0.79361725 l 1.7221298 0.72657776 l 1.7493324 0.65839386 l 1.7738266 0.58921814 l 1.7955933 0.51911926 l 1.8145828 0.44822693 l 1.8307877 0.37664032 l 1.844162 0.30446625 l 1.8546982 0.23184204 l 0.94535065 0.21754456 l 0.8458481 0.5483246 l 0.74633026 0.87911224 l 0.64682007 1.2098999 l 0.5473175 1.5406876 l 0.44779968 1.8714676 l 0.3482895 2.2022476 l 0.24877167 2.533043 l 0.1492691 2.863823 l 0.04975891 3.194603 l -0.084877014 3.1875534 l -0.25463104 2.842659 l -0.4243927 2.497757 l -0.5941391 2.1528625 l -0.7638931 1.8079681 l -0.93364716 1.4630661 l -1.1034012 1.1181717 l -1.2731552 0.7732773 l -1.4429092 0.42838287 l -1.6126709 0.083480835 Z "/>
                <path class="typst-shape" fill="#4d79f5" fill-rule="nonzero" transform="matrix(1 0 0 1 36.68744865496558 18.21135805147121)" d="M 0 0m 1.4301335 27.916649 l 4.4107184 -4.685316 l 4.767871 -4.321348 l 5.0950823 -3.9302378 l 5.390296 -3.5144472 l 5.651657 -3.0765877 l 5.877529 -2.6194057 l 6.06649 -2.1457741 l 6.21735 -1.6586672 l 6.3291664 -1.161144 l 6.4012413 -0.65632886 l 6.433113 -0.14739192 l 6.424576 0.36247063 l 6.3757095 0.87005687 l 6.286789 1.3721793 l 6.1584015 1.865684 l 5.9913254 2.3474731 l 5.7866287 2.8145194 l 5.545601 3.2638912 l 5.2697372 3.6927643 l 4.9607773 4.0984497 l 4.620674 4.4783936 l 4.251549 4.8302174 l 3.855713 5.151705 l 3.4356842 5.440838 l 2.9940643 5.6958046 l 2.5336456 5.9150047 l 2.057312 6.0970535 l 1.5680695 6.240818 l 1.0689697 6.3453903 l 0.5631714 6.410103 l 0.05380249 6.434578 l -0.45587158 6.418625 l -0.96269226 6.362381 l -1.4634552 6.2661667 l -1.9550629 6.130615 l -2.4343567 5.9565506 l -2.8983917 5.7450867 l -3.3441925 5.4975433 l -3.76902 5.2154617 l -4.170166 4.90065 l -4.5451202 4.5550537 l -4.8915405 4.180847 l -5.2072372 3.7803955 l -5.4902267 3.356186 l -5.7387543 2.910904 l -5.9512253 2.447342 l -6.1263275 1.9684296 l -6.2629623 1.4771423 l -1.6138077 0.057388306 l -1.4747543 -0.30099487 l -1.3357086 -0.65937805 l -1.1966629 -1.017746 l -1.0576096 -1.3761292 l -0.9185562 -1.7345123 l -0.7795181 -2.0928802 l -0.6404648 -2.4512787 l -0.50141144 -2.8096313 l -0.36237335 -3.1680298 l -0.22885895 -3.1867828 l -0.10089874 -2.8659363 l 0.027061462 -2.5450897 l 0.15502167 -2.224228 l 0.2829895 -1.9033661 l 0.4109497 -1.5825348 l 0.5389099 -1.2616577 l 0.6668701 -0.9408264 l 0.79483795 -0.61994934 l 0.92279816 -0.29911804 l 3.6713943 -0.86590576 l 3.5912933 -1.1539001 l 3.488655 -1.4346542 l 3.36409 -1.706398 l 3.2184143 -1.9674149 l 3.0525208 -2.216095 l 2.867447 -2.4508362 l 2.664383 -2.6702042 l 2.44458 -2.872795 l 2.2094269 -3.0573425 l 1.9603958 -3.2226944 l 1.6990509 -3.367813 l 1.4270401 -3.491768 l 1.1460648 -3.593811 l 0.8578949 -3.6732712 l 0.5643387 -3.7296677 l 0.2672348 -3.7626495 l -0.031547546 -3.771988 l -0.33013153 -3.7576523 l -0.6266403 -3.7197113 l -0.9192047 -3.658409 l -1.2060165 -3.5741348 l -1.4852448 -3.4674149 l -1.7551346 -3.3389206 l -2.0140228 -3.189457 l -2.2602463 -3.0199661 l -2.4922867 -2.8315048 l -2.7086716 -2.6252632 l -2.908043 -2.402542 l -3.089157 -2.1647224 l -3.2508698 -1.9133148 l -3.3921585 -1.6498909 l -3.5121613 -1.3761063 l -3.6100922 -1.0936775 l -3.6853638 -0.8043785 l -3.7374802 -0.51003647 l -3.7661362 -0.21248245 l -3.7711334 0.08640289 l -3.752449 0.38474655 l -3.710205 0.6806679 l -3.6446533 0.9723244 l -3.5562172 1.2578659 l -3.445446 1.5355148 l -3.3130417 1.8035164 l -3.1598282 2.060192 l -2.9867744 2.303936 l -2.794958 2.5332031 l -2.5855923 2.746563 l -0.7204361 0.6496124 l -0.93432045 0.37836456 l -1.1482067 0.10712433 l -1.362093 -0.16412354 l -1.5759792 -0.4353714 l -1.7898636 -0.70661163 l -2.0037518 -0.9778595 l -2.2176352 -1.2491035 l -2.4315224 -1.5203514 l -2.6454077 -1.7915916 l -2.562406 -1.897831 l -2.1825166 -1.8390656 l -1.8026266 -1.7802887 l -1.4227372 -1.7215233 l -1.0428474 -1.662754 l -0.6629578 -1.603981 l -0.28306815 -1.5452118 l 0.096821494 -1.4864426 l 0.47671115 -1.4276714 l 0.8566008 -1.3689022 Z "/>
            </g>
        </g>
    </g>
</svg>
