<svg width="512" height="512" viewBox="0 0 512 512" fill="none" xmlns="http://www.w3.org/2000/svg">
  <defs>
    <linearGradient id="bg" x1="0" y1="0" x2="512" y2="512" gradientUnits="userSpaceOnUse">
      <stop stop-color="#052B63"/>
      <stop offset="1" stop-color="#00163A"/>
    </linearGradient>

    <linearGradient id="bar1" x1="0" y1="288" x2="0" y2="385" gradientUnits="userSpaceOnUse">
      <stop stop-color="#3B82F6"/>
      <stop offset="1" stop-color="#1D4ED8"/>
    </linearGradient>

    <linearGradient id="bar2" x1="0" y1="252" x2="0" y2="385" gradientUnits="userSpaceOnUse">
      <stop stop-color="#7DB7FF"/>
      <stop offset="1" stop-color="#60A5FA"/>
    </linearGradient>

    <linearGradient id="bar3" x1="0" y1="280" x2="0" y2="385" gradientUnits="userSpaceOnUse">
      <stop stop-color="#D0E7FF"/>
      <stop offset="1" stop-color="#A5D0FF"/>
    </linearGradient>

    <linearGradient id="green" x1="250" y1="170" x2="390" y2="385" gradientUnits="userSpaceOnUse">
      <stop stop-color="#A3E635"/>
      <stop offset="1" stop-color="#65A30D"/>
    </linearGradient>

    <marker
      id="arrowhead"
      markerWidth="42"
      markerHeight="48"
      refX="6"
      refY="25"
      orient="auto"
      markerUnits="userSpaceOnUse"
      viewBox="0 0 44 50"
    >
      <path
        d="M40 25Q38.5 23 36 22L11 6.5Q6 3.4 6 10V40Q6 46.6 11 43.5L36 28Q38.5 27 40 25Z"
        fill="#79BC17"
      />
    </marker>
  </defs>

  <circle cx="256" cy="256" r="248" fill="url(#bg)"/>

  <path
    d="M223.7 151.6A98.5 98.5 0 1 1 392.7 250.2"
    stroke="url(#green)"
    stroke-width="18"
    stroke-linecap="round"
    marker-end="url(#arrowhead)"
  />

  <line
    x1="314"
    y1="190"
    x2="314"
    y2="148"
    stroke="white"
    stroke-width="16"
    stroke-linecap="round"
  />

  <line
    x1="314"
    y1="190"
    x2="351"
    y2="220"
    stroke="white"
    stroke-width="16"
    stroke-linecap="round"
  />

  <rect x="148" y="288" width="32" height="97" rx="8" fill="url(#bar1)"/>
  <rect x="192" y="252" width="32" height="133" rx="8" fill="url(#bar2)"/>
  <rect x="236" y="280" width="32" height="105" rx="8" fill="url(#bar3)"/>
  <rect x="280" y="312" width="32" height="73" rx="8" fill="url(#green)"/>
  <rect x="324" y="329" width="32" height="56" rx="8" fill="url(#green)"/>

  <path
    d="M126 198H146C150.4 198 154 201.6 154 206V237L118 267V206C118 201.6 121.6 198 126 198Z"
    fill="white"
  />

  <path
    d="M110 368V274L214 187L314 272"
    stroke="white"
    stroke-width="20"
    stroke-linecap="round"
    stroke-linejoin="round"
  />

  <line
    x1="132"
    y1="385"
    x2="377"
    y2="385"
    stroke="white"
    stroke-width="10"
    stroke-linecap="round"
  />
</svg>
