<svg class="typst-doc" viewBox="0 0 216 216" width="216pt" height="216pt" xmlns="http://www.w3.org/2000/svg" xmlns:xlink="http://www.w3.org/1999/xlink" xmlns:h5="http://www.w3.org/1999/xhtml">
    <g>
        <g class="typst-group" transform="matrix(1 0 0 1 8.600000000000005 8.600000000000005)">
            <g>
                <path class="typst-shape" fill="#0b1b29" fill-rule="nonzero" d="M 0 0m 99.4 0 c -54.847332 0 -99.4 44.55267 -99.4 99.4 c 0 54.84733 44.55267 99.4 99.4 99.4 c 54.84733 0 99.4 -44.552673 99.4 -99.4 c 0 -54.847332 -44.552673 -99.4 -99.4 -99.4 Z "/>
                <path class="typst-shape" fill="#f05a4a" fill-rule="nonzero" transform="matrix(1 0 0 1 18.206956600990626 62.793246145561234)" d="M 0 0m 72.70533 117.36193 l -3.163887 -0.39548492 l -3.1459274 -0.5193939 l -3.123104 -0.64250183 l -3.0954742 -0.7646179 l -3.0630684 -0.8855591 l -3.0259438 -1.005127 l -2.984146 -1.1231537 l -2.9377518 -1.2394485 l -2.8868256 -1.3538208 l -2.8314476 -1.4661179 l -2.7717094 -1.576149 l -2.7076912 -1.683754 l -2.6394997 -1.7887573 l -2.5672379 -1.8909988 l -2.4910202 -1.9903336 l -2.4109573 -2.0866013 l -2.3271809 -2.1796417 l -2.2398129 -2.2693253 l -2.1489925 -2.355507 l -2.054861 -2.4380646 l -1.9575577 -2.516861 l -1.8572359 -2.591774 l -1.7540531 -2.6626892 l -1.6481638 -2.7294922 l -1.5397329 -2.7921066 l -1.4289293 -2.8503952 l -1.3159208 -2.9042969 l -1.2008843 -2.9537277 l -1.0839963 -2.9985924 l -0.96543574 -3.0388374 l -0.84538746 -3.074398 l -0.72403526 -3.1052208 l -0.6015668 -3.1312485 l -0.47817075 -3.1524506 l -0.35403737 -3.1687965 l -0.2293581 -3.180252 l -0.104325175 -3.1868057 l 0.02086861 -3.1884422 l 0.14603022 -3.1851654 l 0.27096665 -3.1769772 l 0.39548528 -3.1638908 l 0.51939416 -3.1459236 l 0.64250207 -3.123106 l 0.76461923 -3.0954752 l 0.88555765 -3.0630693 l 1.0051303 -3.0259418 l 1.1231537 -2.9841466 l 1.2394443 -2.9377515 l 0.8786316 -1.354867 l 1.0924435 -1.0354074 l 1.3062563 -0.7159477 l 1.5200672 -0.39648798 l 1.7338791 -0.077028304 l 1.9476919 0.24243139 l 2.1615038 0.5618911 l 2.3753147 0.88135076 l 2.5891285 1.2008104 l 2.8029385 1.5202703 l 2.7417336 1.6403933 l 2.40551 1.5611801 l 2.0692883 1.4819665 l 1.7330627 1.4027538 l 1.3968353 1.3235397 l 1.0606155 1.2443275 l 0.72439194 1.1651134 l 0.38816833 1.0859003 l 0.051944733 1.0066862 l -0.28427887 0.927475 l -0.7265701 1.7221298 l -0.6584015 1.7493267 l -0.5892143 1.7738285 l -0.51911926 1.7955933 l -0.4482231 1.8145885 l -0.37664032 1.8307858 l -0.30447388 1.844162 l -0.23183441 1.8546944 l -0.158844 1.8623657 l -0.08560181 1.8671646 l -0.012233734 1.869091 l 0.061157227 1.8681259 l 0.134449 1.8642845 l 0.2075386 1.8575706 l 0.28030777 1.8479881 l 0.35264206 1.8355598 l 0.42443466 1.820301 l 0.49557114 1.8022346 l 0.5659447 1.7813873 l 0.63544846 1.7577972 l 0.70396423 1.7314911 l 0.77140427 1.7025223 l 0.8376465 1.6709213 l 0.90260315 1.6367493 l 0.96616364 1.6000519 l 1.0282402 1.5608864 l 1.088726 1.5193138 l 1.1475334 1.4753952 l 1.2045708 1.4292145 l 1.2597542 1.3808136 l 1.3129959 1.3302994 l 1.3642082 1.2777176 l 1.4133224 1.2231827 l 1.4602509 1.166748 l 1.5049324 1.1085129 l 1.5472946 1.048584 l 1.587265 0.9870224 l 1.624794 0.9239502 l 1.6598167 0.8594513 l 1.692276 0.79361725 l 1.7221298 0.72657776 l 1.7493324 0.65839386 l 1.7738266 0.58921814 l 1.7955933 0.51911926 l 1.8145828 0.44822693 l 1.8307877 0.37664032 l 1.844162 0.30446625 l 1.8546982 0.23184204 l 0.94535065 0.21754456 l 0.8458481 0.5483246 l 0.74633026 0.87911224 l 0.64682007 1.2098999 l 0.5473175 1.5406876 l 0.44779968 1.8714676 l 0.3482895 2.2022476 l 0.24877167 2.533043 l 0.1492691 2.863823 l 0.04975891 3.194603 l -0.084877014 3.1875534 l -0.25463104 2.842659 l -0.4243927 2.497757 l -0.5941391 2.1528625 l -0.7638931 1.8079681 l -0.93364716 1.4630661 l -1.1034012 1.1181717 l -1.2731552 0.7732773 l -1.4429092 0.42838287 l -1.6126709 0.083480835 Z "/>
                <path class="typst-shape" fill="#4d79f5" fill-rule="nonzero" transform="matrix(1 0 0 1 41.195759475730185 18.205496590094505)" d="M 0 0m 1.7979808 22.784111 l 4.5746684 -4.0950165 l 4.871006 -3.7376537 l 5.139493 -3.358922 l 5.378599 -2.9609861 l 5.5869503 -2.5461202 l 5.763363 -2.1166983 l 5.906822 -1.6751742 l 6.01651 -1.224073 l 6.0918007 -0.76597303 l 6.132263 -0.30349392 l 6.137665 0.1607204 l 6.107975 0.6240158 l 6.0433655 1.0837436 l 5.9441986 1.5372752 l 5.811058 1.9820175 l 5.644684 2.4154286 l 5.4460373 2.8350291 l 5.216263 3.2384224 l 4.9566574 3.6232996 l 4.6687164 3.9874592 l 4.354088 4.328825 l 4.0145493 4.645439 l 3.6520767 4.9354954 l 3.2687073 5.1973343 l 2.8666687 5.429455 l 2.448227 5.630535 l 2.0157928 5.799427 l 1.5718384 5.935158 l 1.1188812 6.036953 l 0.65953064 6.104248 l 0.19642639 6.1366196 l -0.267807 6.1339264 l -0.7305145 6.0961533 l -1.1890564 6.023529 l -1.6407776 5.9164734 l -2.0831451 5.7755737 l -2.513565 5.6016693 l -2.9296417 5.3957367 l -3.3289719 5.158951 l -3.7092514 4.892662 l -4.068329 4.598419 l -4.4041595 4.2778625 l -4.7147903 3.9328766 l -4.9984818 3.565384 l -5.2535934 3.1775055 l -5.478653 2.771469 l -5.672409 2.349594 l -5.833725 1.9142609 l -1.6026611 0.1978302 l -1.4953766 -0.17131042 l -1.388092 -0.54045105 l -1.2808075 -0.9095917 l -1.173523 -1.2787018 l -1.0662384 -1.6478577 l -0.95895386 -2.016983 l -0.8516693 -2.3861237 l -0.74438477 -2.755249 l -0.6371002 -3.1243896 l -0.5057373 -3.1547089 l -0.35030365 -2.8462372 l -0.19485474 -2.5377502 l -0.03942108 -2.2292786 l 0.1160202 -1.9207916 l 0.2714615 -1.61232 l 0.42689514 -1.303833 l 0.5823364 -0.9953613 l 0.7377777 -0.686882 l 0.893219 -0.37839508 l 3.4197693 -1.1221619 l 3.325203 -1.3773422 l 3.2116318 -1.6246567 l 3.079689 -1.8626785 l 2.9301376 -2.0900497 l 2.7638474 -2.3054733 l 2.581749 -2.507721 l 2.3848877 -2.6956177 l 2.174385 -2.8681183 l 1.9514618 -3.024208 l 1.7173767 -3.1630173 l 1.4734802 -3.2837372 l 1.2211456 -3.3856888 l 0.96183777 -3.4682693 l 0.6970291 -3.5310364 l 0.4282303 -3.5736084 l 0.15699768 -3.595749 l -0.11515045 -3.5973358 l -0.38661957 -3.5783463 l -0.65589905 -3.5389023 l -0.92141724 -3.4792328 l -1.1816711 -3.399662 l -1.435173 -3.300663 l -1.6804581 -3.1827812 l -1.9161377 -3.0467148 l -2.1408768 -2.893219 l -2.3533554 -2.7231903 l -2.552391 -2.5375862 l -2.7368393 -2.3374748 l -2.9056244 -2.1240044 l -3.057808 -1.8983841 l -3.192505 -1.6619148 l -3.3089523 -1.4159393 l -3.4064865 -1.1618729 l -3.4845276 -0.9011612 l -3.5426636 -0.6352997 l -3.580536 -0.36580276 l -3.5979424 -0.09421539 l -3.5947762 0.17790985 l -3.5710564 0.4490204 l -3.5269165 0.7175598 l -3.4626198 0.98199844 l -3.3785248 1.2408218 l -3.2751083 1.4925537 l -3.1529732 1.7357521 l -3.012806 1.9690208 l -2.8554173 2.19104 l -2.6817017 2.400528 l -0.77431107 0.5843506 l -0.9637432 0.29549408 l -1.1531734 0.006641388 l -1.3426056 -0.28221512 l -1.5320358 -0.5710678 l -1.721468 -0.8599205 l -1.9109001 -1.148777 l -2.1003304 -1.4376297 l -2.2897625 -1.7264862 l -2.4791937 -2.015339 l -2.3872485 -2.1139374 l -2.0139265 -2.0222816 l -1.6406043 -1.9306297 l -1.2672827 -1.8389683 l -0.89396065 -1.7473164 l -0.5206388 -1.6556587 l -0.14731689 -1.564003 l 0.22600503 -1.4723473 l 0.59932697 -1.3806915 l 0.9726488 -1.2890358 Z "/>
            </g>
        </g>
    </g>
</svg>
